<?xml version="1.0" encoding="UTF-8"?>
<svg id="Capa_2" data-name="Capa 2" xmlns="http://www.w3.org/2000/svg" viewBox="0 0 328.93 341.01">
  <defs>
    <style>
      .cls-1 {
        fill: #1d9ddb;
      }

      .cls-1, .cls-2 {
        stroke-width: 0px;
      }

      .cls-2 {
        fill: #102d4d;
      }
    </style>
  </defs>
  <path class="cls-1" d="M243.45,86.53v-33.96h-28.5v10.07c9.5,7.96,19,15.92,28.5,23.89Z"/>
  <g>
    <path class="cls-2" d="M270.42,123.49v66.24c-5.91-10.3-14.11-19.11-23.89-25.75v-30.94c0-1.98-.85-3.87-2.33-5.2l-76.89-68.59c-1.52-1.36-3.81-1.36-5.34,0l-77.12,68.8c-1.48,1.32-2.33,3.21-2.33,5.2v30.72c-3.99,2.71-7.72,5.78-11.13,9.17-4.95,4.92-9.26,10.5-12.76,16.59v-66.05c0-1.07.46-2.09,1.27-2.79L164.65,29.22l104.5,91.48c.81.7,1.27,1.73,1.27,2.79Z"/>
    <path class="cls-2" d="M228.67,141.4v13.56c-8.11-2.86-16.83-4.42-25.92-4.42-10.06,0-19.67,1.91-28.49,5.36v-12.37h.06v-3.55h12.84l-22.35-33.01c-.42-.62-1.32-.62-1.74,0l-22.35,33.01h12.84v15.45c-8.48-3.17-17.67-4.9-27.26-4.9s-18.7,1.72-27.15,4.86v-13.95c0-2.3.98-4.48,2.69-6.01l58.92-52.65c1.81-1.61,4.54-1.61,6.35,0l58.87,52.6c1.71,1.52,2.69,3.71,2.69,6.01Z"/>
  </g>
  <g>
    <path class="cls-2" d="M191.61,195.04c-6.41,2.13-12.54,4.86-18.33,8.12,8.42,9.5,13.53,22,13.53,35.69,0,29.73-24.1,53.82-53.82,53.82-4.77,0-9.4-.63-13.81-1.79-15.13-4.01-27.64-14.42-34.46-28.18-3.56-7.19-5.56-15.28-5.56-23.85,0-29.63,23.93-53.66,53.52-53.82,7.12-5.96,14.83-11.24,23.02-15.75-7.15-2.34-14.78-3.6-22.72-3.6-40.42,0-73.17,32.76-73.17,73.17,0,20.09,8.1,38.3,21.21,51.52,10.41,10.5,23.96,17.85,39.13,20.53,4.17.74,8.46,1.12,12.84,1.12,40.42,0,73.17-32.76,73.17-73.17,0-16.44-5.41-31.6-14.55-43.81Z"/>
    <path class="cls-2" d="M149.5,212.89c-4.25,7.7-6.66,16.54-6.66,25.95,0,14.12,5.43,26.97,14.34,36.57-5.08,4.07-10.55,7.65-16.35,10.72-10.82-12.75-17.34-29.26-17.34-47.29,0-10.19,2.08-19.9,5.84-28.71,6.26-14.67,17.18-26.87,30.89-34.76,10.73-6.18,23.17-9.7,36.44-9.7,30.37,0,56.41,18.51,67.49,44.85h-21.73c-2.39-3.86-5.27-7.4-8.52-10.53-9.66-9.26-22.78-14.97-37.23-14.97-20.32,0-38,11.26-47.16,27.87Z"/>
  </g>
  <path class="cls-2" d="M269.83,238.85c0,40.42-32.76,73.17-73.17,73.17-7.46,0-14.66-1.11-21.44-3.2,6.71-4.86,12.99-10.29,18.74-16.22.89.05,1.79.07,2.7.07,26.35,0,48.28-18.96,52.91-43.97h-33.73v-19.35h53.36c.4,3.11.64,6.27.64,9.5Z"/>
</svg>